# xmcd CD database file
#
# Track frame offsets:
#	150
#	20372
#	31343
#	52484
#	67673
#	80803
#	97373
#	113191
#	132422
#	146512
#	164281
#	177299
#	188419
#	204922
#	219174
#	238908
#	252998
#	269051
#	283713
#	296439
#	308538
#
# Disc length: 4276 seconds
#
# Revision: 0
# Processed by: cddbd v1.5.1PL2 Copyright (c) Steve Scherf et al.
# Submitted via: CDex 1.50beta10
#
DISCID=3c10b215
DTITLE=Various Artist - Franky Country Gold #15
DYEAR=1900
DGENRE=Country
TTITLE0=01. Alan Jackson - Another Good Reason
TTITLE1=02. Daryle Singletary - The Used To Be's
TTITLE2=03. Clint Black - We Tell Ourselves
TTITLE3=04. Tracy Byrd - Right About Now
TTITLE4=05. Clay Walker - Heart Over Head Over Heels
TTITLE5=06. Alan Jackson - Mercury Blues
TTITLE6=07. Tracy Byrd - Don't Take Her She's All I Got
TTITLE7=08. David Lee Murphy - Genuine Rednecks
TTITLE8=09. Alan Jackson - Chasin' That Neon Rainbow
TTITLE9=10. Clint Black - Nothin' But The Taillights
TTITLE10=11. George Strait - Won't You Come Home
TTITLE11=12. Alan Jackson - Tall Tall Trees
TTITLE12=13. Tracy Lawrence - Sticks And Stones
TTITLE13=14. Trace Adkins - I Left Something On At Home
TTITLE14=15. Alan Jackson - Gone Country
TTITLE15=16. George Strait - Round About Way
TTITLE16=17. Tracy Byrd - I'm From The Country
TTITLE17=18. Alan Jackson - Summertime Blues
TTITLE18=19. Clint Black - Summer's Coming
TTITLE19=20. Alan Jackson - Little Bitty
TTITLE20=21. Clint Black - A Good Run Of Bad Luck
EXTD=
EXTT0=
EXTT1=
EXTT2=
EXTT3=
EXTT4=
EXTT5=
EXTT6=
EXTT7=
EXTT8=
EXTT9=
EXTT10=
EXTT11=
EXTT12=
EXTT13=
EXTT14=
EXTT15=
EXTT16=
EXTT17=
EXTT18=
EXTT19=
EXTT20=
PLAYORDER=
